<?xml version="1.0" encoding="UTF-8" standalone="no"?>
<!DOCTYPE svg PUBLIC "-//W3C//DTD SVG 1.1//EN" "http://www.w3.org/Graphics/SVG/1.1/DTD/svg11.dtd">
<svg width="100%" height="100%" viewBox="0 0 32 32" version="1.1" xmlns="http://www.w3.org/2000/svg" xmlns:xlink="http://www.w3.org/1999/xlink" xml:space="preserve" xmlns:serif="http://www.serif.com/" style="fill-rule:evenodd;clip-rule:evenodd;stroke-linejoin:round;stroke-miterlimit:2;">
    <g transform="matrix(0.773046,0,0,0.773046,-22.6601,-8.49143)">
        <circle cx="50.01" cy="31.682" r="20.697" style="fill:rgb(254,196,0);"/>
        <path d="M50.01,12.422C60.64,12.422 69.27,21.052 69.27,31.682C69.27,42.311 60.64,50.941 50.01,50.941C39.38,50.941 30.751,42.311 30.751,31.682C30.751,21.052 39.38,12.422 50.01,12.422ZM50.01,16.234C58.536,16.234 65.458,23.156 65.458,31.682C65.458,40.208 58.536,47.129 50.01,47.129C41.484,47.129 34.562,40.208 34.562,31.682C34.562,23.156 41.484,16.234 50.01,16.234Z" style="fill:rgb(0,87,0);"/>
        <g transform="matrix(1.29358,0,0,1.29358,-73.4319,-24.6248)">
            <text x="87.482px" y="51.402px" style="font-family:'Arial-BoldMT', 'Arial', sans-serif;font-weight:700;font-size:22px;fill:rgb(0,87,0);">H</text>
        </g>
    </g>
</svg>
